# xmcd
# 
# Track frame offsets:
#     150
#     13668
#     28804
#     40835
#     53447
#     68145
#     83368
#     95524
#     107986
#     121127
#     134770
#     148567
#     162349
#     176481
#     186609
#     202936
#     217873
#     231013
#     242471
#     257431
#     271681
#     283094
#     296804
#     310370
#     324633
#     329746
# 
# Disc length: 4432
# 
# Revision: 13
# Processed by: cddbd v1.5.2PL0 Copyright (c) Steve Scherf et al.
# Submitted via: BonkEnc v1.0.8
# 
DISCID=7c114e1a
DTITLE=J.R.R. Tolkien (Read by Rob Inglis) - The Return Of The King - Disc 12
DYEAR=1990
DGENRE=Audio Book
TTITLE0=Chapter18 - The Scouring Of The Shire (Part 10)
TTITLE1=Chapter18 - The Scouring Of The Shire (Part 11)
TTITLE2=Chapter18 - The Scouring Of The Shire (Part 12)
TTITLE3=Chapter18 - The Scouring Of The Shire (Part 13)
TTITLE4=Chapter18 - The Scouring Of The Shire (Part 14)
TTITLE5=Chapter18 - The Scouring Of The Shire (Part 15)
TTITLE6=Chapter18 - The Scouring Of The Shire (Part 16)
TTITLE7=Chapter18 - The Scouring Of The Shire (Part 17)
TTITLE8=Chapter18 - The Scouring Of The Shire (Part 18)
TTITLE9=Chapter18 - The Scouring Of The Shire (Part 19)
TTITLE10=Chapter18 - The Scouring Of The Shire (Part 20)
TTITLE11=Chapter18 - The Scouring Of The Shire (Part 21)
TTITLE12=Chapter18 - The Scouring Of The Shire (Part 22)
TTITLE13=Chapter18 - The Scouring Of The Shire (Part 23)
TTITLE14=Chapter 19 - The Grey Havens (Part 01)
TTITLE15=Chapter 19 - The Grey Havens (Part 02)
TTITLE16=Chapter 19 - The Grey Havens (Part 03)
TTITLE17=Chapter 19 - The Grey Havens (Part 04)
TTITLE18=Chapter 19  The Grey Havens (Part 05)
TTITLE19=Chapter 19 - The Grey Havens (Part 06)
TTITLE20=Chapter 19 - The Grey Havens (Part 07)
TTITLE21=Chapter 19 - The Grey Havens (Part 08)
TTITLE22=Chapter 19 - The Grey Havens (Part 09)
TTITLE23=Chapter 19 - The Grey Havens (Part 10)
TTITLE24=Chapter 19  The Grey Havens (Part 11)
TTITLE25=Chapter 19 - The Grey Havens (Part 12)
EXTD=YEAR: 1990
EXTT0=
EXTT1=
EXTT2=
EXTT3=
EXTT4=
EXTT5=
EXTT6=
EXTT7=
EXTT8=
EXTT9=
EXTT10=
EXTT11=
EXTT12=
EXTT13=
EXTT14=
EXTT15=
EXTT16=
EXTT17=
EXTT18=
EXTT19=
EXTT20=
EXTT21=
EXTT22=
EXTT23=
EXTT24=
EXTT25=
PLAYORDER=
